<?xml version="1.0" encoding="UTF-8"?> <!-- Generator: Adobe Illustrator 22.0.1, SVG Export Plug-In . SVG Version: 6.00 Build 0) --> <svg xmlns="http://www.w3.org/2000/svg" xmlns:xlink="http://www.w3.org/1999/xlink" version="1.1" id="Camada_1" x="0px" y="0px" viewBox="0 0 253.5 167" style="enable-background:new 0 0 253.5 167;" xml:space="preserve"> <style type="text/css"> .st0{fill:#E5AAA3;} .st1{fill:#FFFFFF;} </style> <g> <polygon class="st0" points="63.5,136.9 12,150.7 21.4,125.9 0.9,109.1 52.4,95.3 "></polygon> <polygon class="st0" points="202,99.8 253.5,86 232.9,69.2 242.4,44.4 190.9,58.2 "></polygon> <g> <path class="st0" d="M219.4,76.8l-17.4,23L219.4,76.8z"></path> <rect x="196.3" y="86.9" transform="matrix(0.6021 -0.7984 0.7984 0.6021 13.3164 203.3711)" class="st1" width="28.8" height="2.8"></rect> </g> <g> <path class="st0" d="M37,125.7l26.5,11.2L37,125.7z"></path> <rect x="48.9" y="116.9" transform="matrix(0.39 -0.9208 0.9208 0.39 -90.2718 126.3664)" class="st1" width="2.8" height="28.8"></rect> </g> <path class="st0" d="M202.9,62.5c11.7,43.5-14.2,88.2-57.7,99.9c-43.5,11.7-88.2-14.2-99.9-57.7C33.7,61.2,59.5,16.5,103,4.9 C146.5-6.8,191.2,19,202.9,62.5z"></path> <g> <path class="st0" d="M192.8,65.2c10.2,37.9-12.3,76.9-50.3,87.1c-37.9,10.2-76.9-12.4-87.1-50.3c-10.2-37.9,12.3-76.9,50.3-87.1 C143.7,4.8,182.7,27.3,192.8,65.2z"></path> <path class="st1" d="M143.2,155c-39.4,10.5-80-12.9-90.5-52.3c-10.5-39.4,12.9-80,52.3-90.5c39.4-10.5,80,12.9,90.5,52.3 C206.1,103.9,182.6,144.5,143.2,155z M106.4,17.6C70,27.4,48.3,64.9,58.1,101.3c9.8,36.4,47.3,58.1,83.7,48.3 c36.4-9.8,58.1-47.3,48.3-83.7C180.4,29.5,142.8,7.9,106.4,17.6z"></path> </g> <g> <polygon class="st0" points="116.7,59.7 25.8,84.1 37,125.7 127.8,101.4 218.7,77 207.5,35.4 "></polygon> <path class="st1" d="M220.4,78L36,127.4L24.1,83.1l184.4-49.4L220.4,78z M38,124l179-48l-10.4-38.9l-179,48L38,124z"></path> </g> <polygon class="st1" points="107.1,25.5 112.2,31.3 119.8,30.4 115.9,37 119.1,43.9 111.6,42.3 106,47.5 105.3,39.8 98.6,36.1 105.7,33.1 "></polygon> <g> <path class="st1" d="M84.5,41c2.2,1.6,3.3,2.4,5.4,4.1c2.8-0.8,4.2-1.1,7-1.8c-1.3,2.4-1.9,3.7-3,6.1c1.4,2.2,2.1,3.3,3.5,5.6 c-2.6-0.2-4-0.3-6.7-0.5c-1.7,2.1-2.5,3.2-4,5.4c-0.8-2.5-1.2-3.8-1.9-6.3c-2.6-0.8-3.9-1.1-6.6-1.7c2.3-1.7,3.5-2.5,5.9-4.1 C84.2,45.1,84.3,43.7,84.5,41z"></path> <path class="st1" d="M135.2,27.4c1.5,2.2,2.3,3.4,3.8,5.6c2.9,0.2,4.3,0.3,7.2,0.6c-2,1.9-3,2.9-4.9,4.8c0.6,2.6,0.9,3.8,1.5,6.4 c-2.4-1.1-3.7-1.6-6.2-2.6c-2.3,1.4-3.4,2.2-5.6,3.7c0.1-2.6,0.1-4,0.3-6.6c-2.2-1.6-3.3-2.3-5.7-3.8c2.7-0.8,4.1-1.2,6.9-1.9 C133.6,31.2,134.1,29.9,135.2,27.4z"></path> </g> <g> <path class="st1" d="M74,104.8l-5.9,1.6l5.1-20.9l0.4,1.5L63,89.8l-1.2-4.4l15.7-4.2l1.1,4.2L74,104.8z"></path> <path class="st1" d="M100.7,97.6L95,76.5l8.6-2.3c2.4-0.6,4.5-0.8,6.4-0.4c1.9,0.4,3.5,1.3,4.8,2.6c1.3,1.3,2.3,3.1,2.9,5.3 c0.6,2.2,0.7,4.2,0.2,6.1c-0.5,1.8-1.4,3.4-2.9,4.7c-1.5,1.3-3.4,2.3-5.7,2.9L100.7,97.6z M105.1,91.7l2.7-0.7 c2.1-0.6,3.5-1.5,4.2-2.8c0.7-1.3,0.8-3,0.3-5c-1.1-4.1-3.7-5.5-7.8-4.4l-2.7,0.7L105.1,91.7z"></path> <path class="st1" d="M126.8,90.6l-5.7-21.1l5.6-1.5l5.7,21.1L126.8,90.6z"></path> <path class="st1" d="M142.2,86.5l-5.6,1.5l4.2-23.8l4.4-1.2l15.6,18.5l-5.5,1.5l-11.6-14.7l1.2-0.3L142.2,86.5z M140,82.4l1-4.8 l10.4-2.8l3.3,3.6L140,82.4z"></path> <path class="st1" d="M172.4,78.7c-1.1,0.3-2.1,0.5-3.2,0.6c-1.1,0.1-2.2,0.1-3.2,0c-1-0.1-1.9-0.3-2.7-0.6l0.7-4.4 c1.2,0.4,2.4,0.6,3.7,0.6c1.2,0,2.5-0.1,3.6-0.4c1.2-0.3,2.1-0.7,2.6-1.2c0.5-0.5,0.7-1,0.6-1.6c-0.1-0.3-0.3-0.6-0.6-0.8 c-0.3-0.2-0.8-0.3-1.4-0.4c-0.7-0.1-1.6-0.1-2.7,0c-1.6,0.1-3,0.1-4.1,0c-1.1-0.1-2-0.4-2.7-0.8c-0.7-0.4-1.3-0.9-1.7-1.4 c-0.4-0.6-0.7-1.3-0.9-2.1c-0.3-1.3-0.3-2.5,0.2-3.8c0.5-1.2,1.3-2.3,2.4-3.3c1.1-0.9,2.6-1.6,4.3-2.1c1-0.3,2-0.4,3.1-0.5 c1-0.1,2-0.1,3,0.1c0.9,0.1,1.7,0.3,2.4,0.7l-0.7,4.4c-1.1-0.4-2.3-0.7-3.4-0.7c-1.1-0.1-2.2,0-3.2,0.3s-1.8,0.7-2.3,1.2 c-0.5,0.6-0.7,1.2-0.5,1.8c0.1,0.3,0.3,0.6,0.5,0.8c0.3,0.2,0.7,0.3,1.4,0.4c0.7,0.1,1.6,0.1,2.9,0c1.5-0.1,2.9-0.1,3.9,0.1 c1.1,0.2,2,0.4,2.7,0.8c0.7,0.4,1.3,0.9,1.7,1.4c0.4,0.6,0.7,1.3,0.9,2c0.4,1.4,0.3,2.6-0.1,3.8c-0.4,1.2-1.3,2.2-2.5,3.1 S174.3,78.2,172.4,78.7z"></path> </g> <g> <path class="st1" d="M101.2,131.8c-1,0.3-1.8,0.3-2.6,0.1c-0.8-0.2-1.5-0.5-2-1.1c-0.6-0.6-1-1.3-1.2-2.3 c-0.2-0.9-0.3-1.8-0.1-2.5c0.2-0.8,0.6-1.4,1.2-2c0.6-0.6,1.4-1,2.3-1.2c0.6-0.2,1.3-0.2,1.9-0.2c0.6,0,1.1,0.1,1.6,0.3l-0.3,1.8 c-0.5-0.2-0.9-0.2-1.3-0.3c-0.4,0-0.8,0-1.2,0.1c-0.8,0.2-1.3,0.6-1.6,1.1c-0.3,0.5-0.3,1.3,0,2.2c0.3,0.9,0.6,1.6,1.2,1.9 c0.5,0.3,1.2,0.4,2,0.2c0.3-0.1,0.5-0.2,0.8-0.3c0.3-0.1,0.5-0.3,0.8-0.4l-0.3,0.8l-0.6-2.2l-1.5,0.4l-0.4-1.6l3.6-1l1.2,4.4 c-0.3,0.2-0.6,0.4-0.9,0.6c-0.3,0.2-0.7,0.4-1.1,0.5C102,131.6,101.7,131.7,101.2,131.8z"></path> <path class="st1" d="M108.5,129.8l-2.3,0.6l1.8-9.9l1.8-0.5l6.5,7.7l-2.3,0.6l-4.8-6.1l0.5-0.1L108.5,129.8z M107.6,128.1l0.4-2 l4.3-1.2l1.4,1.5L107.6,128.1z"></path> <path class="st1" d="M118,127.2l-2.4-8.8l4.1-1.1c1.1-0.3,1.9-0.3,2.6,0s1.1,0.9,1.3,1.7c0.2,0.8,0.1,1.5-0.3,2.1 c-0.4,0.6-1.1,1.1-2.1,1.4l1-0.5c0.3-0.1,0.6-0.1,0.9,0.1c0.3,0.1,0.6,0.3,0.8,0.7l1.7,2.3l-2.5,0.7l-1.9-2.6 c-0.1-0.2-0.3-0.3-0.5-0.3c-0.2,0-0.4,0-0.6,0l-0.8,0.2l0.9,3.4L118,127.2z M118.9,121.5l1.5-0.4c0.5-0.1,0.8-0.3,1-0.5 c0.2-0.2,0.2-0.5,0.1-0.8c-0.1-0.3-0.3-0.6-0.5-0.6c-0.3-0.1-0.6-0.1-1.1,0.1l-1.5,0.4L118.9,121.5z"></path> <path class="st1" d="M129.2,124.2l-2.3,0.6l1.8-9.9l1.8-0.5l6.5,7.7l-2.3,0.6l-4.8-6.1l0.5-0.1L129.2,124.2z M128.3,122.5l0.4-2 l4.3-1.2l1.4,1.5L128.3,122.5z"></path> <path class="st1" d="M138.7,121.7l-2.4-8.8l1.7-0.5l5.8,4.3l-0.3,0.4l-1.5-5.7l2.2-0.6l2.4,8.8l-1.7,0.5l-5.8-4.3l0.3-0.4l1.5,5.8 L138.7,121.7z"></path> <path class="st1" d="M151.4,118.3l-1.9-6.9l-2.6,0.7l-0.5-1.9l7.6-2l0.5,1.9l-2.6,0.7l1.9,6.9L151.4,118.3z"></path> <path class="st1" d="M158.5,116.4l-2.4-8.8l2.3-0.6l2.4,8.8L158.5,116.4z"></path> <path class="st1" d="M164.9,114.6l-2.3,0.6l1.8-9.9l1.8-0.5l6.5,7.7l-2.3,0.6l-4.8-6.1l0.5-0.1L164.9,114.6z M164,112.9l0.4-2 l4.3-1.2l1.4,1.5L164,112.9z"></path> </g> </g> </svg> 