<svg width="312" height="60" viewBox="0 0 312 60" fill="none" xmlns="http://www.w3.org/2000/svg">
<path d="M10.0721 44.984C10.0721 46.52 9.11213 47.288 7.19213 47.288C5.30413 47.288 4.36013 46.52 4.36013 44.984V10.952C4.36013 9.416 5.30413 8.648 7.19213 8.648C9.11213 8.648 10.0721 9.416 10.0721 10.952V44.984ZM47.1859 8.648C48.2099 8.648 49.3299 8.888 50.5459 9.368C51.6659 9.816 52.2259 10.664 52.2259 11.912V44.984C52.2259 46.52 51.2819 47.288 49.3939 47.288C47.5059 47.288 46.5619 46.52 46.5619 44.984V20.312L45.1699 20.168L43.2499 26.408L37.4899 45.608C37.1379 46.728 36.2739 47.272 34.8979 47.24C34.2899 47.208 33.7619 47.048 33.3139 46.76C32.8659 46.472 32.5619 46.056 32.4019 45.512L28.9459 34.328C28.2419 32.12 27.5379 29.88 26.8339 27.608C26.1299 25.304 25.3619 22.76 24.5299 19.976L23.1379 20.168V44.984C23.1379 46.52 22.1939 47.288 20.3059 47.288C18.4179 47.288 17.4739 46.52 17.4739 44.984V11.912C17.4739 10.696 18.0339 9.848 19.1539 9.368C20.3379 8.888 21.4739 8.664 22.5619 8.696C23.0419 8.696 23.5379 8.76 24.0499 8.888C24.5619 9.016 25.0419 9.208 25.4899 9.464C25.9379 9.688 26.3379 9.992 26.6899 10.376C27.0419 10.728 27.3139 11.144 27.5059 11.624L35.0419 37.304C35.5859 35.416 36.1619 33.368 36.7699 31.16C37.3779 28.952 38.0019 26.712 38.6419 24.44C39.2819 22.168 39.9059 19.928 40.5139 17.72C41.1539 15.48 41.7459 13.4 42.2899 11.48C42.4819 11.032 42.7539 10.632 43.1059 10.28C43.4579 9.928 43.8579 9.64 44.3059 9.416C44.7539 9.16 45.2179 8.968 45.6979 8.84C46.2099 8.712 46.7059 8.648 47.1859 8.648ZM69.4279 32.888C68.8839 32.888 68.4519 32.68 68.1319 32.264C67.8439 31.816 67.6999 31.224 67.6999 30.488C67.6999 28.856 68.3719 28.04 69.7159 28.04H74.8039C75.9879 28.04 76.8199 27.704 77.2999 27.032C77.8119 26.36 78.0679 25.624 78.0679 24.824V16.952C78.0679 16.152 77.8119 15.416 77.2999 14.744C76.8199 14.072 75.9879 13.736 74.8039 13.736H64.7239V45.08C64.7239 46.616 63.7639 47.384 61.8439 47.384C59.9879 47.384 59.0599 46.616 59.0599 45.08V11.768C59.0599 10.616 59.3479 9.848 59.9239 9.464C60.4999 9.08 61.2039 8.888 62.0359 8.888H76.0519C76.8519 8.888 77.6999 9.064 78.5959 9.416C79.4919 9.768 80.3559 10.216 81.1879 10.76H81.1399C81.9719 11.368 82.6119 12.168 83.0599 13.16C83.5079 14.12 83.7319 15.24 83.7319 16.52V25.208C83.7319 27.8 82.8679 29.736 81.1399 31.016C80.3079 31.624 79.4599 32.088 78.5959 32.408C77.7319 32.728 76.8839 32.888 76.0519 32.888H69.4279ZM109.172 8.888C110.004 8.888 110.868 9.064 111.764 9.416C112.66 9.768 113.524 10.216 114.356 10.76H114.307C115.14 11.368 115.78 12.168 116.228 13.16C116.676 14.12 116.9 15.24 116.9 16.52V39.32C116.9 41.912 116.036 43.848 114.307 45.128C113.476 45.736 112.612 46.216 111.716 46.568C110.852 46.888 110.004 47.048 109.172 47.048H98.7075C97.8755 47.048 97.0115 46.888 96.1155 46.568C95.2515 46.216 94.4035 45.736 93.5715 45.128C92.7395 44.488 92.0995 43.704 91.6515 42.776C91.2035 41.816 90.9795 40.664 90.9795 39.32V16.52C90.9795 15.24 91.2035 14.12 91.6515 13.16C92.0995 12.168 92.7395 11.368 93.5715 10.76H93.5235C94.3555 10.216 95.2195 9.768 96.1155 9.416C97.0115 9.064 97.8755 8.888 98.7075 8.888H109.172ZM107.972 42.2C109.156 42.2 109.988 41.864 110.468 41.192C110.948 40.52 111.188 39.768 111.188 38.936V16.952C111.188 16.152 110.948 15.416 110.468 14.744C109.988 14.072 109.156 13.736 107.972 13.736H99.9075C98.7235 13.736 97.8915 14.072 97.4115 14.744C96.9315 15.416 96.6915 16.152 96.6915 16.952V38.936C96.6915 39.768 96.9315 40.52 97.4115 41.192C97.8915 41.864 98.7235 42.2 99.9075 42.2H107.972ZM137.752 31.208H134.056C133.512 31.208 133.08 31 132.76 30.584C132.472 30.136 132.328 29.544 132.328 28.808C132.328 27.176 133 26.36 134.344 26.36H139.96C141.144 26.36 141.976 26.024 142.456 25.352C142.936 24.68 143.176 23.944 143.176 23.144V16.952C143.176 16.152 142.936 15.416 142.456 14.744C141.976 14.072 141.144 13.736 139.96 13.736H129.832V45.032C129.832 46.568 128.888 47.336 127 47.336C125.112 47.336 124.168 46.568 124.168 45.032V11.768C124.168 10.616 124.456 9.848 125.032 9.464C125.64 9.08 126.36 8.888 127.192 8.888H141.16C141.992 8.888 142.856 9.064 143.752 9.416C144.648 9.768 145.512 10.216 146.344 10.76H146.296C147.128 11.368 147.768 12.168 148.216 13.16C148.664 14.12 148.888 15.24 148.888 16.52V23.528C148.888 26.12 148.024 28.056 146.296 29.336C145.944 29.592 145.56 29.832 145.144 30.056C144.76 30.28 144.36 30.504 143.944 30.728L151.624 43.4C151.72 43.56 151.816 43.768 151.912 44.024C152.008 44.28 152.056 44.488 152.056 44.648C152.056 45.416 151.512 46.152 150.424 46.856V46.808C149.688 47.256 149.064 47.48 148.552 47.48C147.816 47.48 147.224 47.112 146.776 46.376L146.824 46.424L137.752 31.208ZM169.328 45.08C169.328 46.616 168.368 47.384 166.448 47.384C164.56 47.384 163.616 46.616 163.616 45.08V13.736H155.216C154.064 13.736 153.456 12.92 153.392 11.288C153.392 9.688 154 8.888 155.216 8.888H177.728C178.944 8.888 179.52 9.688 179.456 11.288C179.456 12.92 178.88 13.736 177.728 13.736H169.328V45.08ZM196.37 13.592L185.858 45.848V45.8C185.666 46.28 185.394 46.68 185.042 47C184.722 47.288 184.322 47.432 183.842 47.432C183.586 47.432 183.33 47.4 183.074 47.336C182.85 47.304 182.61 47.256 182.354 47.192H182.402C180.578 46.616 179.906 45.592 180.386 44.12L191.33 10.856C191.49 10.344 191.762 9.912 192.146 9.56C192.562 9.208 193.042 9 193.586 8.936C194.13 8.84 194.658 8.776 195.17 8.744C195.682 8.68 196.082 8.648 196.37 8.648C196.658 8.648 197.058 8.68 197.57 8.744C198.082 8.776 198.61 8.824 199.154 8.888C199.602 8.952 200.034 9.192 200.45 9.608C200.898 10.024 201.234 10.44 201.458 10.856C203.25 16.36 205.058 21.912 206.882 27.512C208.738 33.08 210.562 38.616 212.354 44.12C212.802 45.592 212.13 46.616 210.338 47.192C210.082 47.256 209.842 47.304 209.618 47.336C209.426 47.4 209.202 47.432 208.946 47.432C208.498 47.432 208.082 47.288 207.698 47C207.346 46.68 207.09 46.28 206.93 45.8V45.848L196.37 13.592ZM199.97 35.48C199.97 36.504 199.602 37.384 198.866 38.12C198.162 38.824 197.298 39.176 196.274 39.176C195.25 39.176 194.386 38.824 193.682 38.12C192.978 37.384 192.626 36.504 192.626 35.48C192.626 34.456 192.978 33.592 193.682 32.888C194.386 32.152 195.25 31.784 196.274 31.784C197.298 31.784 198.162 32.152 198.866 32.888C199.602 33.592 199.97 34.456 199.97 35.48ZM242.525 39.32C242.525 41.912 241.661 43.848 239.932 45.128C239.101 45.736 238.237 46.216 237.341 46.568C236.477 46.888 235.629 47.048 234.797 47.048H224.333C223.501 47.048 222.637 46.888 221.741 46.568C220.877 46.216 220.029 45.736 219.197 45.128C218.365 44.488 217.725 43.704 217.277 42.776C216.829 41.816 216.605 40.664 216.605 39.32V16.52C216.605 15.24 216.829 14.12 217.277 13.16C217.725 12.168 218.365 11.368 219.197 10.76H219.148C219.981 10.216 220.845 9.768 221.741 9.416C222.637 9.064 223.501 8.888 224.333 8.888H234.797C235.629 8.888 236.493 9.064 237.389 9.416C238.285 9.768 239.149 10.216 239.981 10.76H239.932C240.765 11.368 241.405 12.168 241.853 13.16C242.301 14.12 242.525 15.24 242.525 16.52V19.832C242.525 21.368 241.565 22.136 239.645 22.136C237.757 22.136 236.812 21.368 236.812 19.832V16.952C236.812 16.152 236.573 15.416 236.093 14.744C235.613 14.072 234.781 13.736 233.597 13.736H225.533C224.349 13.736 223.517 14.072 223.037 14.744C222.557 15.416 222.317 16.152 222.317 16.952V38.936C222.317 39.768 222.557 40.52 223.037 41.192C223.517 41.864 224.349 42.2 225.533 42.2H233.597C234.781 42.2 235.613 41.864 236.093 41.192C236.573 40.52 236.812 39.768 236.812 38.936V36.152C236.812 34.648 237.757 33.896 239.645 33.896C241.565 33.896 242.525 34.648 242.525 36.152V39.32ZM262.089 13.592L251.577 45.848V45.8C251.385 46.28 251.113 46.68 250.761 47C250.441 47.288 250.041 47.432 249.561 47.432C249.305 47.432 249.049 47.4 248.793 47.336C248.569 47.304 248.329 47.256 248.073 47.192H248.121C246.297 46.616 245.625 45.592 246.105 44.12L257.049 10.856C257.209 10.344 257.481 9.912 257.865 9.56C258.281 9.208 258.761 9 259.305 8.936C259.849 8.84 260.377 8.776 260.889 8.744C261.401 8.68 261.801 8.648 262.089 8.648C262.377 8.648 262.777 8.68 263.289 8.744C263.801 8.776 264.329 8.824 264.873 8.888C265.321 8.952 265.753 9.192 266.169 9.608C266.617 10.024 266.953 10.44 267.177 10.856C268.969 16.36 270.777 21.912 272.601 27.512C274.457 33.08 276.281 38.616 278.073 44.12C278.521 45.592 277.849 46.616 276.057 47.192C275.801 47.256 275.561 47.304 275.337 47.336C275.145 47.4 274.921 47.432 274.665 47.432C274.217 47.432 273.801 47.288 273.417 47C273.065 46.68 272.809 46.28 272.649 45.8V45.848L262.089 13.592ZM265.689 35.48C265.689 36.504 265.321 37.384 264.585 38.12C263.881 38.824 263.017 39.176 261.993 39.176C260.969 39.176 260.105 38.824 259.401 38.12C258.697 37.384 258.345 36.504 258.345 35.48C258.345 34.456 258.697 33.592 259.401 32.888C260.105 32.152 260.969 31.784 261.993 31.784C263.017 31.784 263.881 32.152 264.585 32.888C265.321 33.592 265.689 34.456 265.689 35.48ZM300.515 8.888C301.347 8.888 302.211 9.064 303.107 9.416C304.003 9.768 304.867 10.216 305.699 10.76H305.651C306.483 11.368 307.123 12.168 307.571 13.16C308.019 14.12 308.243 15.24 308.243 16.52V39.32C308.243 41.912 307.379 43.848 305.651 45.128C304.819 45.736 303.955 46.216 303.059 46.568C302.195 46.888 301.347 47.048 300.515 47.048H290.051C289.219 47.048 288.355 46.888 287.459 46.568C286.595 46.216 285.747 45.736 284.915 45.128C284.083 44.488 283.443 43.704 282.995 42.776C282.547 41.816 282.323 40.664 282.323 39.32V16.52C282.323 15.24 282.547 14.12 282.995 13.16C283.443 12.168 284.083 11.368 284.915 10.76H284.867C285.699 10.216 286.563 9.768 287.459 9.416C288.355 9.064 289.219 8.888 290.051 8.888H300.515ZM299.315 42.2C300.499 42.2 301.331 41.864 301.811 41.192C302.291 40.52 302.531 39.768 302.531 38.936V16.952C302.531 16.152 302.291 15.416 301.811 14.744C301.331 14.072 300.499 13.736 299.315 13.736H291.251C290.067 13.736 289.235 14.072 288.755 14.744C288.275 15.416 288.035 16.152 288.035 16.952V38.936C288.035 39.768 288.275 40.52 288.755 41.192C289.235 41.864 290.067 42.2 291.251 42.2H299.315Z" fill="#217BCE"/>
<path d="M223.481 53.3833L225.824 46.7872" stroke="#217BCE" stroke-width="5" stroke-linecap="round"/>
<path d="M258.997 3.10449L265.997 3.18773" stroke="#217BCE" stroke-width="5" stroke-linecap="round"/>
</svg>
