<svg width="91" height="33" viewBox="0 0 91 33" fill="none" xmlns="http://www.w3.org/2000/svg">
<path d="M45.956 18.856H42.482C41.99 18.856 41.666 19 41.51 19.288C41.342 19.54 41.258 19.834 41.258 20.17V25.354C41.258 25.666 41.354 25.906 41.546 26.074C41.738 26.23 42.056 26.308 42.5 26.308H44.354C44.786 26.308 45.002 26.59 45.002 27.154C45.002 27.394 44.948 27.598 44.84 27.766C44.744 27.922 44.582 28 44.354 28H42.176C41.42 28 40.748 27.808 40.16 27.424C39.572 27.064 39.278 26.38 39.278 25.372V20.008C39.278 19.516 39.356 19.09 39.512 18.73C39.668 18.37 39.914 18.076 40.25 17.848C40.886 17.392 41.522 17.164 42.158 17.164H45.956V14.464C45.956 13.888 46.286 13.6 46.946 13.6C47.606 13.6 47.936 13.888 47.936 14.464V27.244C47.936 27.82 47.606 28.108 46.946 28.108C46.694 28.108 46.466 28.066 46.262 27.982C46.058 27.886 45.956 27.682 45.956 27.37V18.856ZM52.3511 27.244C52.3511 27.82 52.0211 28.108 51.3611 28.108C50.6891 28.108 50.3531 27.82 50.3531 27.244V17.956C50.3531 17.38 50.6891 17.092 51.3611 17.092C52.0211 17.092 52.3511 17.38 52.3511 17.956V27.244ZM52.7291 14.824C52.7291 15.208 52.5971 15.532 52.3331 15.796C52.0691 16.06 51.7451 16.192 51.3611 16.192C50.9771 16.192 50.6471 16.06 50.3711 15.796C50.1071 15.532 49.9751 15.208 49.9751 14.824C49.9751 14.428 50.1071 14.098 50.3711 13.834C50.6471 13.57 50.9771 13.438 51.3611 13.438C51.7451 13.438 52.0691 13.57 52.3331 13.834C52.5971 14.098 52.7291 14.428 52.7291 14.824ZM57.7502 26.74C57.4382 26.74 57.1142 26.686 56.7782 26.578C56.4542 26.47 56.1362 26.314 55.8242 26.11C55.1762 25.69 54.8522 24.982 54.8522 23.986V19.918C54.8522 19.414 54.9362 18.982 55.1042 18.622C55.2842 18.262 55.5242 17.98 55.8242 17.776C56.1362 17.584 56.4542 17.434 56.7782 17.326C57.1022 17.218 57.4202 17.164 57.7322 17.164H60.7562C61.0562 17.164 61.3682 17.23 61.6922 17.362C62.0162 17.494 62.3162 17.662 62.5922 17.866C62.8682 18.094 63.0902 18.394 63.2582 18.766C63.4262 19.138 63.5102 19.558 63.5102 20.026V27.658C63.5102 28.162 63.4262 28.588 63.2582 28.936C63.1022 29.296 62.8802 29.596 62.5922 29.836C62.3162 30.064 62.0162 30.238 61.6922 30.358C61.3802 30.49 61.0682 30.556 60.7562 30.556H57.7322C57.0962 30.556 56.4542 30.37 55.8062 29.998C55.4702 29.806 55.2242 29.56 55.0682 29.26C54.9242 28.96 54.8522 28.612 54.8522 28.216V28C54.8522 27.76 54.9302 27.568 55.0862 27.424C55.2422 27.28 55.4882 27.208 55.8242 27.208C56.4962 27.28 56.8322 27.544 56.8322 28V28.198C56.8322 28.33 56.9222 28.474 57.1022 28.63C57.2942 28.786 57.6122 28.864 58.0562 28.864H60.3062C60.7502 28.864 61.0622 28.738 61.2422 28.486C61.4342 28.234 61.5302 27.952 61.5302 27.64V20.044C61.5302 19.744 61.4342 19.474 61.2422 19.234C61.0622 18.982 60.7502 18.856 60.3062 18.856H58.0562C57.6122 18.856 57.2942 18.982 57.1022 19.234C56.9222 19.474 56.8322 19.744 56.8322 20.044V23.842C56.8322 24.142 56.9222 24.424 57.1022 24.688C57.2942 24.94 57.6122 25.066 58.0562 25.066H59.9282C60.3602 25.066 60.5762 25.342 60.5762 25.894C60.5762 26.146 60.5222 26.35 60.4142 26.506C60.3182 26.662 60.1562 26.74 59.9282 26.74H57.7502ZM67.9604 27.244C67.9604 27.82 67.6304 28.108 66.9704 28.108C66.2984 28.108 65.9624 27.82 65.9624 27.244V17.956C65.9624 17.38 66.2984 17.092 66.9704 17.092C67.6304 17.092 67.9604 17.38 67.9604 17.956V27.244ZM68.3384 14.824C68.3384 15.208 68.2064 15.532 67.9424 15.796C67.6784 16.06 67.3544 16.192 66.9704 16.192C66.5864 16.192 66.2564 16.06 65.9804 15.796C65.7164 15.532 65.5844 15.208 65.5844 14.824C65.5844 14.428 65.7164 14.098 65.9804 13.834C66.2564 13.57 66.5864 13.438 66.9704 13.438C67.3544 13.438 67.6784 13.57 67.9424 13.834C68.2064 14.098 68.3384 14.428 68.3384 14.824ZM72.8196 18.856V25.408C72.8196 25.72 72.8856 25.96 73.0176 26.128C73.1496 26.296 73.4316 26.38 73.8636 26.38H74.3316C74.7996 26.38 75.0216 26.656 74.9976 27.208C74.9976 27.772 74.7756 28.054 74.3316 28.054H73.7376C73.3536 28.054 72.9936 28.006 72.6576 27.91C72.3216 27.802 71.9976 27.652 71.6856 27.46V27.478C71.0976 27.094 70.8036 26.41 70.8036 25.426V18.856H70.1016C69.6696 18.856 69.4416 18.574 69.4176 18.01C69.4176 17.446 69.6456 17.164 70.1016 17.164H70.8036V15.238C70.8036 14.662 71.1456 14.374 71.8296 14.374C72.4896 14.374 72.8196 14.662 72.8196 15.238V17.164H74.3136C74.7816 17.164 75.0036 17.446 74.9796 18.01C74.9796 18.574 74.7576 18.856 74.3136 18.856H72.8196ZM79.2792 28C78.9072 28 78.5532 27.952 78.2172 27.856C77.8812 27.748 77.5572 27.598 77.2452 27.406V27.424C76.6572 27.052 76.3632 26.368 76.3632 25.372V24.49C76.3632 23.998 76.4472 23.572 76.6152 23.212C76.7952 22.84 77.0412 22.546 77.3532 22.33H77.3352C77.6352 22.126 77.9532 21.976 78.2892 21.88C78.6252 21.772 78.9492 21.718 79.2612 21.718H83.2392V20.044C83.2392 19.744 83.1432 19.474 82.9512 19.234C82.7712 18.982 82.4592 18.856 82.0152 18.856H79.9092C79.4532 18.856 79.1352 18.97 78.9552 19.198C78.7872 19.414 78.7032 19.672 78.7032 19.972V20.116C78.7032 20.74 78.3672 21.052 77.6952 21.052C77.0232 21.052 76.6872 20.74 76.6872 20.116V19.954C76.6872 19.462 76.7712 19.048 76.9392 18.712C77.1192 18.376 77.3592 18.094 77.6592 17.866H77.6412C77.9532 17.662 78.2772 17.494 78.6132 17.362C78.9612 17.23 79.2912 17.164 79.6032 17.164H82.3392C82.6392 17.164 82.9572 17.23 83.2932 17.362C83.6412 17.494 83.9652 17.662 84.2652 17.866H84.2472C84.5592 18.094 84.7992 18.394 84.9672 18.766C85.1352 19.126 85.2192 19.546 85.2192 20.026V27.244C85.2192 27.82 84.8892 28.108 84.2292 28.108C84.0972 28.108 83.9712 28.102 83.8512 28.09C83.7432 28.078 83.6412 28.048 83.5452 28C83.4612 27.94 83.3892 27.862 83.3292 27.766C83.2812 27.658 83.2572 27.52 83.2572 27.352L83.2392 23.41H79.6032C79.3392 23.41 79.1352 23.44 78.9912 23.5C78.8472 23.56 78.7332 23.656 78.6492 23.788C78.5532 23.992 78.4812 24.154 78.4332 24.274C78.3972 24.382 78.3792 24.508 78.3792 24.652V25.354C78.3792 25.666 78.4692 25.906 78.6492 26.074C78.8412 26.23 79.1652 26.308 79.6212 26.308H81.6372C82.0812 26.308 82.3032 26.59 82.3032 27.154C82.3032 27.394 82.2492 27.598 82.1412 27.766C82.0332 27.922 81.8652 28 81.6372 28H79.2792ZM89.5995 27.298C89.5995 27.862 89.2695 28.144 88.6095 28.144C87.9375 28.144 87.6015 27.862 87.6015 27.298V14.392C87.6015 13.828 87.9375 13.546 88.6095 13.546C89.2695 13.546 89.5995 13.828 89.5995 14.392V27.298Z" fill="black"/>
<path d="M2.268 28.62C1.38 28.62 0.78 28.392 0.468 27.936C0.156 27.48 0 26.976 0 26.424V2.16C0 1.608 0.156 1.116 0.468 0.684C0.78 0.228 1.38 0 2.268 0H14.796C15.684 0 16.152 0.6 16.2 1.8C16.248 3.024 15.78 3.636 14.796 3.636H4.248V24.984H15.444C16.332 24.984 16.788 25.572 16.812 26.748C16.86 27.996 16.404 28.62 15.444 28.62H2.268ZM13.464 13.716C13.464 14.556 13.164 15.264 12.564 15.84C11.988 16.416 11.28 16.704 10.44 16.704C9.624 16.704 8.928 16.416 8.352 15.84C7.776 15.264 7.488 14.556 7.488 13.716C7.488 12.876 7.776 12.168 8.352 11.592C8.928 11.016 9.624 10.728 10.44 10.728C11.28 10.728 11.988 11.016 12.564 11.592C13.164 12.168 13.464 12.876 13.464 13.716Z" fill="url(#paint0_linear_2_33)"/>
<path d="M24.9902 27.072C24.9902 28.224 24.2822 28.8 22.8662 28.8C21.4502 28.8 20.7422 28.224 20.7422 27.072V2.16C20.7422 1.608 20.8982 1.116 21.2102 0.684C21.5222 0.228 22.1222 0 23.0102 0H35.2502C36.1142 0 36.5702 0.6 36.6182 1.8C36.6662 3.024 36.2102 3.636 35.2502 3.636H24.9902V27.072ZM34.2062 13.716C34.2062 14.124 34.1222 14.52 33.9542 14.904C33.8102 15.264 33.5942 15.576 33.3062 15.84C33.0422 16.104 32.7302 16.32 32.3702 16.488C32.0102 16.632 31.6142 16.704 31.1822 16.704C30.3662 16.704 29.6702 16.416 29.0942 15.84C28.5182 15.264 28.2302 14.556 28.2302 13.716C28.2302 12.876 28.5182 12.168 29.0942 11.592C29.6702 11.016 30.3662 10.728 31.1822 10.728C31.6142 10.728 32.0102 10.812 32.3702 10.98C32.7302 11.124 33.0422 11.34 33.3062 11.628C33.5942 11.892 33.8102 12.204 33.9542 12.564C34.1222 12.924 34.2062 13.308 34.2062 13.716Z" fill="url(#paint1_linear_2_33)"/>
<defs>
<linearGradient id="paint0_linear_2_33" x1="18.3108" y1="0" x2="18.3108" y2="28.8" gradientUnits="userSpaceOnUse">
<stop stop-color="#FC4746"/>
<stop offset="1" stop-color="#CE1615"/>
</linearGradient>
<linearGradient id="paint1_linear_2_33" x1="18.3108" y1="0" x2="18.3108" y2="28.8" gradientUnits="userSpaceOnUse">
<stop stop-color="#FC4746"/>
<stop offset="1" stop-color="#CE1615"/>
</linearGradient>
</defs>
</svg>
